# xmcd CD database file
#
# Track frame offsets:
#	150
#	16603
#	28920
#	54578
#	68692
#	93522
#	109565
#	130846
#	146455
#	158169
#	178584
#
# Disc length: 2596 seconds
#
# Revision: 2
# Processed by: cddbd v1.5.2PL0 Copyright (c) Steve Scherf et al.
# Submitted via: jetAudio 5
#
DISCID=880a220b
DTITLE=The Donkeys - Living on the Other Side
DYEAR=1900
DGENRE=
TTITLE0=Gone Gone Gone
TTITLE1=Walk Through a Cloud
TTITLE2=Dolphin Center
TTITLE3=Pretty Thing
TTITLE4=Traverse Wine
TTITLE5=Bye Bye Baby
TTITLE6=Downtown Jenny
TTITLE7=Nice Train
TTITLE8=Dreamin'
TTITLE9=Boot on the Seat
TTITLE10=Excelsior Lday
EXTD=
EXTT0=
EXTT1=
EXTT2=
EXTT3=
EXTT4=
EXTT5=
EXTT6=
EXTT7=
EXTT8=
EXTT9=
EXTT10=
PLAYORDER=
